<mxfile host="app.diagrams.net" modified="2024-04-07T06:04:43.843Z" agent="Mozilla/5.0 (Windows NT 10.0; Win64; x64) AppleWebKit/537.36 (KHTML, like Gecko) Chrome/123.0.0.0 Safari/537.36" version="24.2.2" etag="EUOFO785q0NzI8q2w6ne" type="github">
  <diagram name="第 1 页" id="5Z4tPmKQAPZQnVil1hu9">
    <mxGraphModel>
      <root>
        <mxCell id="0" />
        <mxCell id="1" parent="0" />
      </root>
    </mxGraphModel>
  </diagram>
</mxfile>
